<svg width="18" height="19" viewBox="0 0 18 19" fill="none" xmlns="http://www.w3.org/2000/svg">
<path d="M7.6 13.7368L14.65 6.67972L13.25 5.27831L7.6 10.934L4.75 8.08112L3.35 9.48252L7.6 13.7368ZM2 18.5416C1.45 18.5416 0.979167 18.3455 0.5875 17.9535C0.195833 17.5614 0 17.0901 0 16.5396V2.52556C0 1.97501 0.195833 1.50371 0.5875 1.11165C0.979167 0.719589 1.45 0.52356 2 0.52356H16C16.55 0.52356 17.0208 0.719589 17.4125 1.11165C17.8042 1.50371 18 1.97501 18 2.52556V16.5396C18 17.0901 17.8042 17.5614 17.4125 17.9535C17.0208 18.3455 16.55 18.5416 16 18.5416H2ZM2 16.5396H16V2.52556H2V16.5396Z" fill="white"/>
</svg>
